<mxfile host="65bd71144e">
    <diagram id="6IbAzHZTuBwBoGnhfW5m" name="Page-1">
        <mxGraphModel dx="990" dy="449" grid="1" gridSize="10" guides="1" tooltips="1" connect="1" arrows="1" fold="1" page="1" pageScale="1" pageWidth="827" pageHeight="1169" math="0" shadow="0">
            <root>
                <mxCell id="0"/>
                <mxCell id="1" parent="0"/>
                <mxCell id="2" value="User's Profile:&lt;br&gt;Nick (unique)&lt;br&gt;Password&lt;br&gt;Real Name&lt;br&gt;E-mail" style="ellipse;shape=cloud;whiteSpace=wrap;html=1;" parent="1" vertex="1">
                    <mxGeometry x="280" y="80" width="230" height="150" as="geometry"/>
                </mxCell>
                <mxCell id="3" value="Comment:&lt;br&gt;Text&lt;br&gt;Publication Date" style="ellipse;shape=cloud;whiteSpace=wrap;html=1;" parent="1" vertex="1">
                    <mxGeometry x="100" y="380" width="180" height="130" as="geometry"/>
                </mxCell>
                <mxCell id="4" value="Photo:&lt;br&gt;Filename&lt;br&gt;Description (optional)&lt;br&gt;&lt;br&gt;Tagging users by Frame:&lt;br&gt;coordinates" style="ellipse;shape=cloud;whiteSpace=wrap;html=1;" parent="1" vertex="1">
                    <mxGeometry x="510" y="320" width="250" height="200" as="geometry"/>
                </mxCell>
                <mxCell id="mvNkoSaQTtyqf2YyQ3a3-4" value="DB design adheres &lt;br&gt;strictly to requirements &lt;br&gt;limiting nice-to-have-s &lt;br&gt;to a minimum&lt;br&gt;in order to &lt;br&gt;practice abstraction" style="ellipse;whiteSpace=wrap;html=1;aspect=fixed;" parent="1" vertex="1">
                    <mxGeometry x="280" y="240" width="240" height="240" as="geometry"/>
                </mxCell>
            </root>
        </mxGraphModel>
    </diagram>
    <diagram id="3VuMSHAZYGPktU_dCQZz" name="Page-2">
        <mxGraphModel dx="1414" dy="641" grid="1" gridSize="10" guides="1" tooltips="1" connect="1" arrows="1" fold="1" page="1" pageScale="1" pageWidth="827" pageHeight="1169" math="0" shadow="0">
            <root>
                <mxCell id="4VrYrnmUSF9G2GRnttEU-0"/>
                <mxCell id="4VrYrnmUSF9G2GRnttEU-1" parent="4VrYrnmUSF9G2GRnttEU-0"/>
                <mxCell id="rmwluv7UCdGQV8acDv7V-3" style="edgeStyle=none;html=1;entryX=1;entryY=1;entryDx=0;entryDy=0;endArrow=none;endFill=0;exitX=0.25;exitY=0;exitDx=0;exitDy=0;" parent="4VrYrnmUSF9G2GRnttEU-1" source="4VrYrnmUSF9G2GRnttEU-2" target="4VrYrnmUSF9G2GRnttEU-3" edge="1">
                    <mxGeometry relative="1" as="geometry"/>
                </mxCell>
                <mxCell id="D6YsK2pA35mjCqRcn5N1-8" style="edgeStyle=none;html=1;entryX=0.5;entryY=0;entryDx=0;entryDy=0;endArrow=none;endFill=0;startArrow=ERone;startFill=0;" parent="4VrYrnmUSF9G2GRnttEU-1" source="4VrYrnmUSF9G2GRnttEU-2" target="cpUhNPlc0yKIAzupFsu--0" edge="1">
                    <mxGeometry relative="1" as="geometry"/>
                </mxCell>
                <mxCell id="4VrYrnmUSF9G2GRnttEU-2" value="TUTOR" style="rounded=1;whiteSpace=wrap;html=1;" parent="4VrYrnmUSF9G2GRnttEU-1" vertex="1">
                    <mxGeometry x="340" y="150" width="120" height="60" as="geometry"/>
                </mxCell>
                <mxCell id="4VrYrnmUSF9G2GRnttEU-3" value="first_name" style="ellipse;whiteSpace=wrap;html=1;" parent="4VrYrnmUSF9G2GRnttEU-1" vertex="1">
                    <mxGeometry x="260" y="80" width="80" height="40" as="geometry"/>
                </mxCell>
                <mxCell id="D6YsK2pA35mjCqRcn5N1-9" style="edgeStyle=none;html=1;exitX=0.5;exitY=1;exitDx=0;exitDy=0;entryX=0.5;entryY=0;entryDx=0;entryDy=0;startArrow=none;startFill=0;endArrow=ERzeroToMany;endFill=0;" parent="4VrYrnmUSF9G2GRnttEU-1" source="cpUhNPlc0yKIAzupFsu--0" target="cpUhNPlc0yKIAzupFsu--1" edge="1">
                    <mxGeometry relative="1" as="geometry"/>
                </mxCell>
                <mxCell id="cpUhNPlc0yKIAzupFsu--0" value="offers" style="rhombus;whiteSpace=wrap;html=1;" parent="4VrYrnmUSF9G2GRnttEU-1" vertex="1">
                    <mxGeometry x="350" y="250" width="100" height="60" as="geometry"/>
                </mxCell>
                <mxCell id="cpUhNPlc0yKIAzupFsu--1" value="COURSE" style="rounded=1;whiteSpace=wrap;html=1;" parent="4VrYrnmUSF9G2GRnttEU-1" vertex="1">
                    <mxGeometry x="340" y="350" width="120" height="60" as="geometry"/>
                </mxCell>
                <mxCell id="ZZeD1Ujqx9RaDZUOhp30-0" value="approves" style="rhombus;whiteSpace=wrap;html=1;" vertex="1" parent="4VrYrnmUSF9G2GRnttEU-1">
                    <mxGeometry x="190" y="350" width="100" height="60" as="geometry"/>
                </mxCell>
                <mxCell id="ZZeD1Ujqx9RaDZUOhp30-9" style="edgeStyle=none;html=1;exitX=1;exitY=0.5;exitDx=0;exitDy=0;entryX=0;entryY=0.5;entryDx=0;entryDy=0;endArrow=none;endFill=0;startArrow=ERone;startFill=0;" edge="1" parent="4VrYrnmUSF9G2GRnttEU-1" source="ZZeD1Ujqx9RaDZUOhp30-2" target="ZZeD1Ujqx9RaDZUOhp30-0">
                    <mxGeometry relative="1" as="geometry"/>
                </mxCell>
                <mxCell id="ZZeD1Ujqx9RaDZUOhp30-2" value="ADMIN" style="rounded=1;whiteSpace=wrap;html=1;" vertex="1" parent="4VrYrnmUSF9G2GRnttEU-1">
                    <mxGeometry x="20" y="350" width="120" height="60" as="geometry"/>
                </mxCell>
                <mxCell id="ZZeD1Ujqx9RaDZUOhp30-3" value="books + &lt;br&gt;reviews" style="rhombus;whiteSpace=wrap;html=1;" vertex="1" parent="4VrYrnmUSF9G2GRnttEU-1">
                    <mxGeometry x="510" y="350" width="100" height="60" as="geometry"/>
                </mxCell>
                <mxCell id="ZZeD1Ujqx9RaDZUOhp30-4" value="STUDENT" style="rounded=1;whiteSpace=wrap;html=1;" vertex="1" parent="4VrYrnmUSF9G2GRnttEU-1">
                    <mxGeometry x="660" y="350" width="120" height="60" as="geometry"/>
                </mxCell>
                <mxCell id="ZZeD1Ujqx9RaDZUOhp30-5" value="last_name" style="ellipse;whiteSpace=wrap;html=1;" vertex="1" parent="4VrYrnmUSF9G2GRnttEU-1">
                    <mxGeometry x="360" y="80" width="80" height="40" as="geometry"/>
                </mxCell>
                <mxCell id="ZZeD1Ujqx9RaDZUOhp30-6" value="tut_details" style="ellipse;whiteSpace=wrap;html=1;" vertex="1" parent="4VrYrnmUSF9G2GRnttEU-1">
                    <mxGeometry x="460" y="80" width="80" height="40" as="geometry"/>
                </mxCell>
                <mxCell id="ZZeD1Ujqx9RaDZUOhp30-7" style="edgeStyle=none;html=1;entryX=0.5;entryY=1;entryDx=0;entryDy=0;endArrow=none;endFill=0;exitX=0.5;exitY=0;exitDx=0;exitDy=0;" edge="1" parent="4VrYrnmUSF9G2GRnttEU-1" source="4VrYrnmUSF9G2GRnttEU-2" target="ZZeD1Ujqx9RaDZUOhp30-5">
                    <mxGeometry relative="1" as="geometry">
                        <mxPoint x="380" y="160.0000000000001" as="sourcePoint"/>
                        <mxPoint x="338.2842712474619" y="124.14213562373095" as="targetPoint"/>
                    </mxGeometry>
                </mxCell>
                <mxCell id="ZZeD1Ujqx9RaDZUOhp30-8" style="edgeStyle=none;html=1;entryX=0;entryY=1;entryDx=0;entryDy=0;endArrow=none;endFill=0;exitX=0.75;exitY=0;exitDx=0;exitDy=0;" edge="1" parent="4VrYrnmUSF9G2GRnttEU-1" source="4VrYrnmUSF9G2GRnttEU-2" target="ZZeD1Ujqx9RaDZUOhp30-6">
                    <mxGeometry relative="1" as="geometry">
                        <mxPoint x="390" y="170.0000000000001" as="sourcePoint"/>
                        <mxPoint x="348.2842712474619" y="134.14213562373095" as="targetPoint"/>
                    </mxGeometry>
                </mxCell>
                <mxCell id="ZZeD1Ujqx9RaDZUOhp30-10" style="edgeStyle=none;html=1;entryX=0;entryY=0.5;entryDx=0;entryDy=0;endArrow=ERzeroToMany;endFill=0;" edge="1" parent="4VrYrnmUSF9G2GRnttEU-1" target="cpUhNPlc0yKIAzupFsu--1">
                    <mxGeometry relative="1" as="geometry">
                        <mxPoint x="290" y="380" as="sourcePoint"/>
                        <mxPoint x="199.9999999999999" y="390" as="targetPoint"/>
                    </mxGeometry>
                </mxCell>
                <mxCell id="ZZeD1Ujqx9RaDZUOhp30-11" style="edgeStyle=none;html=1;exitX=1;exitY=0.5;exitDx=0;exitDy=0;entryX=0;entryY=0.5;entryDx=0;entryDy=0;endArrow=none;endFill=0;startArrow=ERzeroToMany;startFill=0;" edge="1" parent="4VrYrnmUSF9G2GRnttEU-1" source="cpUhNPlc0yKIAzupFsu--1" target="ZZeD1Ujqx9RaDZUOhp30-3">
                    <mxGeometry relative="1" as="geometry">
                        <mxPoint x="160" y="400" as="sourcePoint"/>
                        <mxPoint x="209.9999999999999" y="400" as="targetPoint"/>
                    </mxGeometry>
                </mxCell>
                <mxCell id="ZZeD1Ujqx9RaDZUOhp30-12" style="edgeStyle=none;html=1;exitX=1;exitY=0.5;exitDx=0;exitDy=0;entryX=0;entryY=0.5;entryDx=0;entryDy=0;endArrow=ERzeroToMany;endFill=0;" edge="1" parent="4VrYrnmUSF9G2GRnttEU-1" source="ZZeD1Ujqx9RaDZUOhp30-3" target="ZZeD1Ujqx9RaDZUOhp30-4">
                    <mxGeometry relative="1" as="geometry">
                        <mxPoint x="470" y="390" as="sourcePoint"/>
                        <mxPoint x="520" y="390" as="targetPoint"/>
                    </mxGeometry>
                </mxCell>
                <mxCell id="ZZeD1Ujqx9RaDZUOhp30-13" value="first_name" style="ellipse;whiteSpace=wrap;html=1;" vertex="1" parent="4VrYrnmUSF9G2GRnttEU-1">
                    <mxGeometry x="630" y="280" width="80" height="40" as="geometry"/>
                </mxCell>
                <mxCell id="ZZeD1Ujqx9RaDZUOhp30-14" value="last_name" style="ellipse;whiteSpace=wrap;html=1;" vertex="1" parent="4VrYrnmUSF9G2GRnttEU-1">
                    <mxGeometry x="730" y="280" width="80" height="40" as="geometry"/>
                </mxCell>
                <mxCell id="ZZeD1Ujqx9RaDZUOhp30-15" style="edgeStyle=none;html=1;exitX=0.5;exitY=1;exitDx=0;exitDy=0;entryX=0.25;entryY=0;entryDx=0;entryDy=0;endArrow=none;endFill=0;" edge="1" parent="4VrYrnmUSF9G2GRnttEU-1" source="ZZeD1Ujqx9RaDZUOhp30-13" target="ZZeD1Ujqx9RaDZUOhp30-4">
                    <mxGeometry relative="1" as="geometry">
                        <mxPoint x="620" y="390" as="sourcePoint"/>
                        <mxPoint x="670" y="390" as="targetPoint"/>
                    </mxGeometry>
                </mxCell>
                <mxCell id="ZZeD1Ujqx9RaDZUOhp30-16" style="edgeStyle=none;html=1;exitX=0.5;exitY=1;exitDx=0;exitDy=0;entryX=0.75;entryY=0;entryDx=0;entryDy=0;endArrow=none;endFill=0;" edge="1" parent="4VrYrnmUSF9G2GRnttEU-1" source="ZZeD1Ujqx9RaDZUOhp30-14" target="ZZeD1Ujqx9RaDZUOhp30-4">
                    <mxGeometry relative="1" as="geometry">
                        <mxPoint x="680" y="330.0000000000001" as="sourcePoint"/>
                        <mxPoint x="700" y="359.9999999999999" as="targetPoint"/>
                    </mxGeometry>
                </mxCell>
                <mxCell id="ZZeD1Ujqx9RaDZUOhp30-17" value="email" style="ellipse;whiteSpace=wrap;html=1;" vertex="1" parent="4VrYrnmUSF9G2GRnttEU-1">
                    <mxGeometry x="680" y="220" width="80" height="40" as="geometry"/>
                </mxCell>
                <mxCell id="ZZeD1Ujqx9RaDZUOhp30-18" style="edgeStyle=none;html=1;exitX=0.5;exitY=1;exitDx=0;exitDy=0;entryX=0.5;entryY=0;entryDx=0;entryDy=0;endArrow=none;endFill=0;" edge="1" parent="4VrYrnmUSF9G2GRnttEU-1" source="ZZeD1Ujqx9RaDZUOhp30-17" target="ZZeD1Ujqx9RaDZUOhp30-4">
                    <mxGeometry relative="1" as="geometry">
                        <mxPoint x="680" y="330.0000000000001" as="sourcePoint"/>
                        <mxPoint x="700" y="359.9999999999999" as="targetPoint"/>
                    </mxGeometry>
                </mxCell>
                <mxCell id="ZZeD1Ujqx9RaDZUOhp30-19" style="edgeStyle=none;html=1;endArrow=none;endFill=0;exitX=0.5;exitY=1;exitDx=0;exitDy=0;entryX=1;entryY=0;entryDx=0;entryDy=0;" edge="1" parent="4VrYrnmUSF9G2GRnttEU-1" source="cpUhNPlc0yKIAzupFsu--1" target="ZZeD1Ujqx9RaDZUOhp30-20">
                    <mxGeometry relative="1" as="geometry">
                        <mxPoint x="340" y="440" as="sourcePoint"/>
                        <mxPoint x="300" y="470" as="targetPoint"/>
                    </mxGeometry>
                </mxCell>
                <mxCell id="ZZeD1Ujqx9RaDZUOhp30-20" value="university" style="ellipse;whiteSpace=wrap;html=1;" vertex="1" parent="4VrYrnmUSF9G2GRnttEU-1">
                    <mxGeometry x="380" y="560" width="80" height="40" as="geometry"/>
                </mxCell>
                <mxCell id="ZZeD1Ujqx9RaDZUOhp30-21" value="subject" style="ellipse;whiteSpace=wrap;html=1;" vertex="1" parent="4VrYrnmUSF9G2GRnttEU-1">
                    <mxGeometry x="360" y="500" width="80" height="40" as="geometry"/>
                </mxCell>
                <mxCell id="ZZeD1Ujqx9RaDZUOhp30-24" style="edgeStyle=none;html=1;endArrow=none;endFill=0;exitX=0.5;exitY=0;exitDx=0;exitDy=0;entryX=0.5;entryY=1;entryDx=0;entryDy=0;startArrow=none;" edge="1" parent="4VrYrnmUSF9G2GRnttEU-1" source="ZZeD1Ujqx9RaDZUOhp30-22" target="cpUhNPlc0yKIAzupFsu--1">
                    <mxGeometry relative="1" as="geometry">
                        <mxPoint x="338.2842712474619" y="344.14213562373084" as="sourcePoint"/>
                        <mxPoint x="350" y="359.9999999999999" as="targetPoint"/>
                    </mxGeometry>
                </mxCell>
                <mxCell id="Kqb9OQ88nR1mqCKMAmrX-2" style="edgeStyle=none;html=1;exitX=0.5;exitY=0;exitDx=0;exitDy=0;entryX=0;entryY=1;entryDx=0;entryDy=0;endArrow=none;endFill=0;" edge="1" parent="4VrYrnmUSF9G2GRnttEU-1" source="Kqb9OQ88nR1mqCKMAmrX-0" target="cpUhNPlc0yKIAzupFsu--1">
                    <mxGeometry relative="1" as="geometry"/>
                </mxCell>
                <mxCell id="Kqb9OQ88nR1mqCKMAmrX-0" value="PICTURES" style="rounded=1;whiteSpace=wrap;html=1;" vertex="1" parent="4VrYrnmUSF9G2GRnttEU-1">
                    <mxGeometry x="160" y="590" width="120" height="60" as="geometry"/>
                </mxCell>
                <mxCell id="Kqb9OQ88nR1mqCKMAmrX-1" value="COURSE" style="rounded=1;whiteSpace=wrap;html=1;" vertex="1" parent="4VrYrnmUSF9G2GRnttEU-1">
                    <mxGeometry x="520" y="590" width="120" height="60" as="geometry"/>
                </mxCell>
                <mxCell id="Kqb9OQ88nR1mqCKMAmrX-3" style="edgeStyle=none;html=1;exitX=0.5;exitY=0;exitDx=0;exitDy=0;entryX=1;entryY=1;entryDx=0;entryDy=0;endArrow=none;endFill=0;" edge="1" parent="4VrYrnmUSF9G2GRnttEU-1" source="Kqb9OQ88nR1mqCKMAmrX-1" target="cpUhNPlc0yKIAzupFsu--1">
                    <mxGeometry relative="1" as="geometry">
                        <mxPoint x="330" y="570" as="sourcePoint"/>
                        <mxPoint x="380" y="420" as="targetPoint"/>
                    </mxGeometry>
                </mxCell>
                <mxCell id="yXSHyCUAyrVd06Veohlo-0" value="" style="edgeStyle=none;html=1;endArrow=none;endFill=0;exitX=0.5;exitY=0;exitDx=0;exitDy=0;entryX=0.5;entryY=1;entryDx=0;entryDy=0;" edge="1" parent="4VrYrnmUSF9G2GRnttEU-1" source="ZZeD1Ujqx9RaDZUOhp30-21" target="cpUhNPlc0yKIAzupFsu--1">
                    <mxGeometry relative="1" as="geometry">
                        <mxPoint x="400" y="500" as="sourcePoint"/>
                        <mxPoint x="400" y="410" as="targetPoint"/>
                    </mxGeometry>
                </mxCell>
                <mxCell id="ZZeD1Ujqx9RaDZUOhp30-22" value="approved" style="ellipse;whiteSpace=wrap;html=1;" vertex="1" parent="4VrYrnmUSF9G2GRnttEU-1">
                    <mxGeometry x="340" y="440" width="80" height="40" as="geometry"/>
                </mxCell>
            </root>
        </mxGraphModel>
    </diagram>
    <diagram id="osiManT-_G5pfziwYEN1" name="Page-3">
        <mxGraphModel dx="990" dy="449" grid="1" gridSize="10" guides="1" tooltips="1" connect="1" arrows="1" fold="1" page="1" pageScale="1" pageWidth="827" pageHeight="1169" math="0" shadow="0">
            <root>
                <mxCell id="dFW7puya6tjT1yHBhRZ5-0"/>
                <mxCell id="dFW7puya6tjT1yHBhRZ5-1" parent="dFW7puya6tjT1yHBhRZ5-0"/>
                <mxCell id="dFW7puya6tjT1yHBhRZ5-2" value="user" style="swimlane;fontStyle=0;childLayout=stackLayout;horizontal=1;startSize=26;fillColor=none;horizontalStack=0;resizeParent=1;resizeParentMax=0;resizeLast=0;collapsible=1;marginBottom=0;" parent="dFW7puya6tjT1yHBhRZ5-1" vertex="1">
                    <mxGeometry x="80" y="120" width="180" height="208" as="geometry"/>
                </mxCell>
                <mxCell id="dFW7puya6tjT1yHBhRZ5-3" value="user_id   INT" style="text;strokeColor=none;fillColor=none;align=left;verticalAlign=top;spacingLeft=4;spacingRight=4;overflow=hidden;rotatable=0;points=[[0,0.5],[1,0.5]];portConstraint=eastwest;fontStyle=1;fontColor=#FF9933;" parent="dFW7puya6tjT1yHBhRZ5-2" vertex="1">
                    <mxGeometry y="26" width="180" height="26" as="geometry"/>
                </mxCell>
                <mxCell id="dFW7puya6tjT1yHBhRZ5-4" value="nick   VARCHAR(32)" style="text;strokeColor=none;fillColor=none;align=left;verticalAlign=top;spacingLeft=4;spacingRight=4;overflow=hidden;rotatable=0;points=[[0,0.5],[1,0.5]];portConstraint=eastwest;" parent="dFW7puya6tjT1yHBhRZ5-2" vertex="1">
                    <mxGeometry y="52" width="180" height="26" as="geometry"/>
                </mxCell>
                <mxCell id="dFW7puya6tjT1yHBhRZ5-5" value="first_name   VARCHAR(32)" style="text;strokeColor=none;fillColor=none;align=left;verticalAlign=top;spacingLeft=4;spacingRight=4;overflow=hidden;rotatable=0;points=[[0,0.5],[1,0.5]];portConstraint=eastwest;" parent="dFW7puya6tjT1yHBhRZ5-2" vertex="1">
                    <mxGeometry y="78" width="180" height="26" as="geometry"/>
                </mxCell>
                <mxCell id="UGNBzNAVb0DQPfp7Jc0x-0" value="second_name   VARCHAR(32)" style="text;strokeColor=none;fillColor=none;align=left;verticalAlign=top;spacingLeft=4;spacingRight=4;overflow=hidden;rotatable=0;points=[[0,0.5],[1,0.5]];portConstraint=eastwest;" parent="dFW7puya6tjT1yHBhRZ5-2" vertex="1">
                    <mxGeometry y="104" width="180" height="26" as="geometry"/>
                </mxCell>
                <mxCell id="UGNBzNAVb0DQPfp7Jc0x-2" value="password   VARCHAR(32)" style="text;strokeColor=none;fillColor=none;align=left;verticalAlign=top;spacingLeft=4;spacingRight=4;overflow=hidden;rotatable=0;points=[[0,0.5],[1,0.5]];portConstraint=eastwest;" parent="dFW7puya6tjT1yHBhRZ5-2" vertex="1">
                    <mxGeometry y="130" width="180" height="26" as="geometry"/>
                </mxCell>
                <mxCell id="UGNBzNAVb0DQPfp7Jc0x-3" value="email   VARCHAR(128)" style="text;strokeColor=none;fillColor=none;align=left;verticalAlign=top;spacingLeft=4;spacingRight=4;overflow=hidden;rotatable=0;points=[[0,0.5],[1,0.5]];portConstraint=eastwest;" parent="dFW7puya6tjT1yHBhRZ5-2" vertex="1">
                    <mxGeometry y="156" width="180" height="26" as="geometry"/>
                </mxCell>
                <mxCell id="UGNBzNAVb0DQPfp7Jc0x-4" value="email_verified   ENUM(0, 1)" style="text;strokeColor=none;fillColor=none;align=left;verticalAlign=top;spacingLeft=4;spacingRight=4;overflow=hidden;rotatable=0;points=[[0,0.5],[1,0.5]];portConstraint=eastwest;" parent="dFW7puya6tjT1yHBhRZ5-2" vertex="1">
                    <mxGeometry y="182" width="180" height="26" as="geometry"/>
                </mxCell>
                <mxCell id="KW_1ObjnBBAuDhf3MpFI-0" value="comment" style="swimlane;fontStyle=0;childLayout=stackLayout;horizontal=1;startSize=26;fillColor=none;horizontalStack=0;resizeParent=1;resizeParentMax=0;resizeLast=0;collapsible=1;marginBottom=0;" parent="dFW7puya6tjT1yHBhRZ5-1" vertex="1">
                    <mxGeometry x="80" y="400" width="180" height="130" as="geometry"/>
                </mxCell>
                <mxCell id="zS_31hyMKTdG4_KaNgTx-8" value="comment_id   INT" style="text;strokeColor=none;fillColor=none;align=left;verticalAlign=top;spacingLeft=4;spacingRight=4;overflow=hidden;rotatable=0;points=[[0,0.5],[1,0.5]];portConstraint=eastwest;fontStyle=1;fontColor=#FF9933;" parent="KW_1ObjnBBAuDhf3MpFI-0" vertex="1">
                    <mxGeometry y="26" width="180" height="26" as="geometry"/>
                </mxCell>
                <mxCell id="KW_1ObjnBBAuDhf3MpFI-1" value="text   TEXT" style="text;strokeColor=none;fillColor=none;align=left;verticalAlign=top;spacingLeft=4;spacingRight=4;overflow=hidden;rotatable=0;points=[[0,0.5],[1,0.5]];portConstraint=eastwest;" parent="KW_1ObjnBBAuDhf3MpFI-0" vertex="1">
                    <mxGeometry y="52" width="180" height="26" as="geometry"/>
                </mxCell>
                <mxCell id="KW_1ObjnBBAuDhf3MpFI-2" value="publication_date   TIMESTAMP" style="text;strokeColor=none;fillColor=none;align=left;verticalAlign=top;spacingLeft=4;spacingRight=4;overflow=hidden;rotatable=0;points=[[0,0.5],[1,0.5]];portConstraint=eastwest;" parent="KW_1ObjnBBAuDhf3MpFI-0" vertex="1">
                    <mxGeometry y="78" width="180" height="26" as="geometry"/>
                </mxCell>
                <mxCell id="KW_1ObjnBBAuDhf3MpFI-3" value="fk_user_id   INT" style="text;strokeColor=none;fillColor=none;align=left;verticalAlign=top;spacingLeft=4;spacingRight=4;overflow=hidden;rotatable=0;points=[[0,0.5],[1,0.5]];portConstraint=eastwest;fontStyle=2;fontColor=#3399FF;" parent="KW_1ObjnBBAuDhf3MpFI-0" vertex="1">
                    <mxGeometry y="104" width="180" height="26" as="geometry"/>
                </mxCell>
                <mxCell id="zS_31hyMKTdG4_KaNgTx-0" value="picture" style="swimlane;fontStyle=0;childLayout=stackLayout;horizontal=1;startSize=26;fillColor=none;horizontalStack=0;resizeParent=1;resizeParentMax=0;resizeLast=0;collapsible=1;marginBottom=0;" parent="dFW7puya6tjT1yHBhRZ5-1" vertex="1">
                    <mxGeometry x="600" y="120" width="180" height="104" as="geometry"/>
                </mxCell>
                <mxCell id="zS_31hyMKTdG4_KaNgTx-9" value="picture_id   INT" style="text;strokeColor=none;fillColor=none;align=left;verticalAlign=top;spacingLeft=4;spacingRight=4;overflow=hidden;rotatable=0;points=[[0,0.5],[1,0.5]];portConstraint=eastwest;fontStyle=1;fontColor=#FF9933;" parent="zS_31hyMKTdG4_KaNgTx-0" vertex="1">
                    <mxGeometry y="26" width="180" height="26" as="geometry"/>
                </mxCell>
                <mxCell id="zS_31hyMKTdG4_KaNgTx-1" value="file_name   VARCHAR(255)" style="text;strokeColor=none;fillColor=none;align=left;verticalAlign=top;spacingLeft=4;spacingRight=4;overflow=hidden;rotatable=0;points=[[0,0.5],[1,0.5]];portConstraint=eastwest;" parent="zS_31hyMKTdG4_KaNgTx-0" vertex="1">
                    <mxGeometry y="52" width="180" height="26" as="geometry"/>
                </mxCell>
                <mxCell id="zS_31hyMKTdG4_KaNgTx-2" value="description   VARCHAR(255)" style="text;strokeColor=none;fillColor=none;align=left;verticalAlign=top;spacingLeft=4;spacingRight=4;overflow=hidden;rotatable=0;points=[[0,0.5],[1,0.5]];portConstraint=eastwest;" parent="zS_31hyMKTdG4_KaNgTx-0" vertex="1">
                    <mxGeometry y="78" width="180" height="26" as="geometry"/>
                </mxCell>
                <mxCell id="zS_31hyMKTdG4_KaNgTx-4" value="tag" style="swimlane;fontStyle=0;childLayout=stackLayout;horizontal=1;startSize=26;fillColor=none;horizontalStack=0;resizeParent=1;resizeParentMax=0;resizeLast=0;collapsible=1;marginBottom=0;" parent="dFW7puya6tjT1yHBhRZ5-1" vertex="1">
                    <mxGeometry x="340" y="120" width="180" height="156" as="geometry"/>
                </mxCell>
                <mxCell id="zS_31hyMKTdG4_KaNgTx-5" value="tag_id   INT" style="text;strokeColor=none;fillColor=none;align=left;verticalAlign=top;spacingLeft=4;spacingRight=4;overflow=hidden;rotatable=0;points=[[0,0.5],[1,0.5]];portConstraint=eastwest;fontStyle=1;fontColor=#FF9933;" parent="zS_31hyMKTdG4_KaNgTx-4" vertex="1">
                    <mxGeometry y="26" width="180" height="26" as="geometry"/>
                </mxCell>
                <mxCell id="zS_31hyMKTdG4_KaNgTx-7" value="x_coordinate   INT" style="text;strokeColor=none;fillColor=none;align=left;verticalAlign=top;spacingLeft=4;spacingRight=4;overflow=hidden;rotatable=0;points=[[0,0.5],[1,0.5]];portConstraint=eastwest;" parent="zS_31hyMKTdG4_KaNgTx-4" vertex="1">
                    <mxGeometry y="52" width="180" height="26" as="geometry"/>
                </mxCell>
                <mxCell id="zS_31hyMKTdG4_KaNgTx-10" value="y-coordinate   INT" style="text;strokeColor=none;fillColor=none;align=left;verticalAlign=top;spacingLeft=4;spacingRight=4;overflow=hidden;rotatable=0;points=[[0,0.5],[1,0.5]];portConstraint=eastwest;" parent="zS_31hyMKTdG4_KaNgTx-4" vertex="1">
                    <mxGeometry y="78" width="180" height="26" as="geometry"/>
                </mxCell>
                <mxCell id="zS_31hyMKTdG4_KaNgTx-6" value="fk_user_id   INT" style="text;strokeColor=none;fillColor=none;align=left;verticalAlign=top;spacingLeft=4;spacingRight=4;overflow=hidden;rotatable=0;points=[[0,0.5],[1,0.5]];portConstraint=eastwest;fontStyle=2;fontColor=#3399FF;" parent="zS_31hyMKTdG4_KaNgTx-4" vertex="1">
                    <mxGeometry y="104" width="180" height="26" as="geometry"/>
                </mxCell>
                <mxCell id="8l2gPRMNkP3sKpIwlBsX-4" value="fk_picture_id   INT" style="text;strokeColor=none;fillColor=none;align=left;verticalAlign=top;spacingLeft=4;spacingRight=4;overflow=hidden;rotatable=0;points=[[0,0.5],[1,0.5]];portConstraint=eastwest;fontColor=#3399FF;fontStyle=2" parent="zS_31hyMKTdG4_KaNgTx-4" vertex="1">
                    <mxGeometry y="130" width="180" height="26" as="geometry"/>
                </mxCell>
                <mxCell id="8l2gPRMNkP3sKpIwlBsX-1" style="edgeStyle=none;html=1;exitX=0;exitY=0.5;exitDx=0;exitDy=0;entryX=0;entryY=0.5;entryDx=0;entryDy=0;fontColor=#3399FF;startArrow=ERzeroToMany;startFill=0;endArrow=ERmandOne;endFill=0;" parent="dFW7puya6tjT1yHBhRZ5-1" source="KW_1ObjnBBAuDhf3MpFI-3" target="dFW7puya6tjT1yHBhRZ5-3" edge="1">
                    <mxGeometry relative="1" as="geometry">
                        <Array as="points">
                            <mxPoint x="40" y="517"/>
                            <mxPoint x="40" y="340"/>
                            <mxPoint x="40" y="159"/>
                        </Array>
                    </mxGeometry>
                </mxCell>
                <mxCell id="8l2gPRMNkP3sKpIwlBsX-3" style="edgeStyle=none;html=1;exitX=1;exitY=0.5;exitDx=0;exitDy=0;entryX=0;entryY=0.5;entryDx=0;entryDy=0;fontColor=#3399FF;startArrow=ERmandOne;startFill=0;endArrow=ERzeroToMany;endFill=0;" parent="dFW7puya6tjT1yHBhRZ5-1" source="dFW7puya6tjT1yHBhRZ5-3" target="zS_31hyMKTdG4_KaNgTx-6" edge="1">
                    <mxGeometry relative="1" as="geometry">
                        <Array as="points">
                            <mxPoint x="300" y="159"/>
                            <mxPoint x="300" y="190"/>
                            <mxPoint x="300" y="237"/>
                        </Array>
                    </mxGeometry>
                </mxCell>
                <mxCell id="8l2gPRMNkP3sKpIwlBsX-5" style="edgeStyle=none;html=1;exitX=1;exitY=0.5;exitDx=0;exitDy=0;entryX=0;entryY=0.5;entryDx=0;entryDy=0;fontColor=#3399FF;startArrow=ERzeroToMany;startFill=0;endArrow=ERmandOne;endFill=0;" parent="dFW7puya6tjT1yHBhRZ5-1" source="8l2gPRMNkP3sKpIwlBsX-4" target="zS_31hyMKTdG4_KaNgTx-9" edge="1">
                    <mxGeometry relative="1" as="geometry">
                        <Array as="points">
                            <mxPoint x="560" y="263"/>
                            <mxPoint x="560" y="210"/>
                            <mxPoint x="560" y="159"/>
                        </Array>
                    </mxGeometry>
                </mxCell>
                <mxCell id="p13-uaxWMizldedGYkuV-0" value="&lt;b&gt;&lt;font style=&quot;font-size: 24px&quot;&gt;1NF&lt;/font&gt;&lt;/b&gt;" style="ellipse;shape=cloud;whiteSpace=wrap;html=1;fillColor=#008a00;strokeColor=#005700;fontColor=#ffffff;" parent="dFW7puya6tjT1yHBhRZ5-1" vertex="1">
                    <mxGeometry x="340" y="450" width="120" height="80" as="geometry"/>
                </mxCell>
                <mxCell id="p13-uaxWMizldedGYkuV-1" value="&lt;b&gt;&lt;font style=&quot;font-size: 24px&quot;&gt;2NF&lt;/font&gt;&lt;/b&gt;" style="ellipse;shape=cloud;whiteSpace=wrap;html=1;fillColor=#008a00;strokeColor=#005700;fontColor=#ffffff;" parent="dFW7puya6tjT1yHBhRZ5-1" vertex="1">
                    <mxGeometry x="390" y="410" width="120" height="80" as="geometry"/>
                </mxCell>
                <mxCell id="p13-uaxWMizldedGYkuV-2" value="&lt;b&gt;&lt;font style=&quot;font-size: 24px&quot;&gt;3NF&lt;/font&gt;&lt;/b&gt;" style="ellipse;shape=cloud;whiteSpace=wrap;html=1;fillColor=#008a00;strokeColor=#005700;fontColor=#ffffff;" parent="dFW7puya6tjT1yHBhRZ5-1" vertex="1">
                    <mxGeometry x="440" y="370" width="120" height="80" as="geometry"/>
                </mxCell>
            </root>
        </mxGraphModel>
    </diagram>
</mxfile>